<svg width="125" height="158" viewBox="0 0 125 158" fill="none" xmlns="http://www.w3.org/2000/svg">
<path d="M9.20046 150.228C11.9469 155.312 17.7759 157.495 17.7759 157.495C17.7759 157.495 19.152 151.434 16.4055 146.349C13.6591 141.265 7.83008 139.082 7.83008 139.082C7.83008 139.082 6.45401 145.143 9.20046 150.228Z" fill="#6A2E0D"/>
<path d="M11.0881 148.555C16.0466 151.533 17.9563 157.448 17.9563 157.448C17.9563 157.448 11.8266 158.535 6.86816 155.557C1.90967 152.579 0 146.664 0 146.664C0 146.664 6.12963 145.577 11.0881 148.555Z" fill="#F5B18B"/>
<path d="M122.258 0.921143H91.3203V1.36234H122.258V0.921143Z" fill="#FFEBDF"/>
<path d="M113.861 1.25208H113.419V5.33311H113.861V1.25208Z" fill="#FFEBDF"/>
<path d="M100.381 1.25208H99.939V5.33311H100.381V1.25208Z" fill="#FFEBDF"/>
<path d="M115.85 18.1277H115.408V22.2087H115.85V18.1277Z" fill="#FFEBDF"/>
<path d="M123.142 63.5706H92.2046V64.0117H123.142V63.5706Z" fill="#FFEBDF"/>
<path d="M101.044 59.5999H100.602V63.6809H101.044V59.5999Z" fill="#FFEBDF"/>
<path d="M114.524 59.5999H114.082V63.6809H114.524V59.5999Z" fill="#FFEBDF"/>
<path d="M110.767 112.764H110.325V116.845H110.767V112.764Z" fill="#FFEBDF"/>
<path d="M124.247 112.764H123.805V116.845H124.247V112.764Z" fill="#FFEBDF"/>
<path d="M80.0086 147.899H27.6831V147.524H79.632V129.298H32.082L29.7721 124.494L30.1115 124.332L32.3189 128.922H80.0086V147.899Z" fill="#6A2E0D"/>
<path d="M34.6475 157.106C36.8305 157.106 38.6001 155.34 38.6001 153.16C38.6001 150.981 36.8305 149.215 34.6475 149.215C32.4645 149.215 30.6948 150.981 30.6948 153.16C30.6948 155.34 32.4645 157.106 34.6475 157.106Z" fill="#3F3D56"/>
<path d="M73.6094 157.106C75.7924 157.106 77.562 155.34 77.562 153.16C77.562 150.981 75.7924 149.215 73.6094 149.215C71.4264 149.215 69.6567 150.981 69.6567 153.16C69.6567 155.34 71.4264 157.106 73.6094 157.106Z" fill="#3F3D56"/>
<path d="M119.535 71.8028C120.887 71.8028 121.982 70.7092 121.982 69.3602C121.982 68.0112 120.887 66.9176 119.535 66.9176C118.184 66.9176 117.088 68.0112 117.088 69.3602C117.088 70.7092 118.184 71.8028 119.535 71.8028Z" fill="#3F3D56"/>
<path d="M85.605 123.098H26.7909L14.0649 81.5732H98.7109L98.6338 81.8176L85.605 123.098ZM27.0694 122.722H85.3289L98.1976 81.949H14.5737L27.0694 122.722Z" fill="#6A2E0D"/>
<path d="M81.0145 120.937H29.3559L18.1782 84.1097H92.5257L92.4581 84.3266L81.0145 120.937Z" fill="#FFEBDF"/>
<path d="M99.7658 77.8635L99.4019 77.7671L101.886 68.4207H116.336V68.7965H102.176L99.7658 77.8635Z" fill="#6A2E0D"/>
<path d="M94.4813 94.1621H18.1777V94.5379H94.4813V94.1621Z" fill="#6A2E0D"/>
<path d="M90.1113 108.007H22.4204V108.382H90.1113V108.007Z" fill="#6A2E0D"/>
<path d="M56.5752 81.7611H56.1987V122.91H56.5752V81.7611Z" fill="#6A2E0D"/>
<path d="M73.4293 81.7493L70.7271 122.897L71.1028 122.921L73.805 81.7739L73.4293 81.7493Z" fill="#6A2E0D"/>
<path d="M39.3528 81.7489L38.9771 81.7733L41.6636 122.922L42.0393 122.897L39.3528 81.7489Z" fill="#6A2E0D"/>
<path d="M100 157H0V158H100V157Z" fill="#6A2E0D"/>
<path d="M44.2515 70.8502H13.314V71.2914H44.2515V70.8502Z" fill="#FFEBDF"/>
<path d="M22.1529 66.8795H21.7109V70.9606H22.1529V66.8795Z" fill="#FFEBDF"/>
<path d="M35.6329 66.8795H35.1909V70.9606H35.6329V66.8795Z" fill="#FFEBDF"/>
<path d="M55.0796 5.55371H24.1421V5.9949H55.0796V5.55371Z" fill="#FFEBDF"/>
<path d="M46.6822 5.88452H46.2402V9.96556H46.6822V5.88452Z" fill="#FFEBDF"/>
<path d="M33.2022 5.88452H32.7603V9.96556H33.2022V5.88452Z" fill="#FFEBDF"/>
<path d="M86.2378 49.0112H55.3003V49.4524H86.2378V49.0112Z" fill="#FFEBDF"/>
<path d="M77.8404 49.342H77.3984V53.4231H77.8404V49.342Z" fill="#FFEBDF"/>
<path d="M64.3609 49.342H63.9189V53.4231H64.3609V49.342Z" fill="#FFEBDF"/>
<path d="M33.644 48.7906H2.70654V49.2318H33.644V48.7906Z" fill="#FFEBDF"/>
<path d="M25.2467 49.1215H24.8047V53.2025H25.2467V49.1215Z" fill="#FFEBDF"/>
<path d="M11.7672 49.1215H11.3252V53.2025H11.7672V49.1215Z" fill="#FFEBDF"/>
<path d="M70.769 26.731H39.8315V27.1722H70.769V26.731Z" fill="#FFEBDF"/>
<path d="M48.671 22.7603H48.229V26.8413H48.671V22.7603Z" fill="#FFEBDF"/>
<path d="M62.1509 22.7603H61.709V26.8413H62.1509V22.7603Z" fill="#FFEBDF"/>
</svg>
