<svg width="156" height="137" viewBox="0 0 156 137" fill="none" xmlns="http://www.w3.org/2000/svg">
<path d="M47.4277 121H80.4695C81.2596 121 81.8972 121.638 81.8972 122.425C81.8972 123.212 81.2596 123.85 80.4695 123.85H47.4277C46.6376 123.853 46 123.215 46 122.425C46 121.638 46.6376 121 47.4277 121Z" fill="#FFEBDF"/>
<path d="M47.4277 133.449H144.411C145.202 133.449 145.839 134.087 145.839 134.877C145.839 135.664 145.202 136.302 144.411 136.302H47.4277C46.6376 136.302 46 135.664 46 134.877C46 134.09 46.6376 133.449 47.4277 133.449Z" fill="#FFEBDF"/>
<path d="M112.37 129.211H4.2077C3.09213 129.21 2.02262 128.767 1.2338 127.98C0.444972 127.192 0.00125519 126.125 0 125.011V4.19998C0.00125584 3.08646 0.444972 2.01891 1.2338 1.23153C2.02262 0.444152 3.09213 0.00125354 4.2077 0H112.37C113.486 0.00125354 114.555 0.444152 115.344 1.23153C116.133 2.01891 116.577 3.08646 116.578 4.19998V125.011C116.577 126.125 116.133 127.192 115.344 127.98C114.555 128.767 113.486 129.21 112.37 129.211ZM4.2077 0.494115C3.22338 0.495227 2.27969 0.886021 1.58367 1.58076C0.887652 2.27551 0.496137 3.21747 0.495023 4.19998V125.011C0.496137 125.994 0.887652 126.936 1.58367 127.63C2.27969 128.325 3.22338 128.716 4.2077 128.717H112.37C113.355 128.716 114.298 128.325 114.994 127.63C115.69 126.936 116.082 125.994 116.083 125.011V4.19998C116.082 3.21747 115.69 2.27551 114.994 1.58076C114.298 0.886021 113.355 0.495227 112.37 0.494115H4.2077Z" fill="#6A2E0D"/>
<path d="M116.33 10.2753H0.24707V10.7694H116.33V10.2753Z" fill="#6A2E0D"/>
<path d="M5.94005 7.41185C7.03363 7.41185 7.92015 6.52696 7.92015 5.43539C7.92015 4.34382 7.03363 3.45892 5.94005 3.45892C4.84648 3.45892 3.95996 4.34382 3.95996 5.43539C3.95996 6.52696 4.84648 7.41185 5.94005 7.41185Z" fill="#F5B18B"/>
<path d="M12.1276 7.41185C13.2211 7.41185 14.1076 6.52696 14.1076 5.43539C14.1076 4.34382 13.2211 3.45892 12.1276 3.45892C11.034 3.45892 10.1475 4.34382 10.1475 5.43539C10.1475 6.52696 11.034 7.41185 12.1276 7.41185Z" fill="#F5B18B"/>
<path d="M18.3155 7.41185C19.4091 7.41185 20.2956 6.52696 20.2956 5.43539C20.2956 4.34382 19.4091 3.45892 18.3155 3.45892C17.222 3.45892 16.3354 4.34382 16.3354 5.43539C16.3354 6.52696 17.222 7.41185 18.3155 7.41185Z" fill="#F5B18B"/>
<path d="M96.9008 28.4116H19.6771C18.8238 28.4116 18.0053 28.0732 17.4019 27.4709C16.7985 26.8686 16.4595 26.0517 16.4595 25.1998C16.4595 24.348 16.7985 23.5311 17.4019 22.9288C18.0053 22.3265 18.8238 21.9881 19.6771 21.9881H96.9008C97.7541 21.9881 98.5726 22.3265 99.176 22.9288C99.7794 23.5311 100.118 24.348 100.118 25.1998C100.118 26.0517 99.7794 26.8686 99.176 27.4709C98.5726 28.0732 97.7541 28.4116 96.9008 28.4116ZM19.6771 22.4822C18.955 22.4822 18.2625 22.7685 17.7519 23.2782C17.2414 23.7878 16.9545 24.4791 16.9545 25.1998C16.9545 25.9206 17.2414 26.6118 17.7519 27.1215C18.2625 27.6312 18.955 27.9175 19.6771 27.9175H96.9008C97.6229 27.9175 98.3154 27.6312 98.826 27.1215C99.3366 26.6118 99.6234 25.9206 99.6234 25.1998C99.6234 24.4791 99.3366 23.7878 98.826 23.2782C98.3154 22.7685 97.6229 22.4822 96.9008 22.4822H19.6771Z" fill="#6A2E0D"/>
<path d="M77.8064 53.7575H42.6598C42.1346 53.7575 41.631 53.5493 41.2596 53.1786C40.8883 52.8079 40.6797 52.3052 40.6797 51.781C40.6797 51.2568 40.8883 50.7541 41.2596 50.3835C41.631 50.0128 42.1346 49.8046 42.6598 49.8046H77.8064C78.3316 49.8046 78.8352 50.0128 79.2066 50.3835C79.5779 50.7541 79.7865 51.2568 79.7865 51.781C79.7865 52.3052 79.5779 52.8079 79.2066 53.1786C78.8352 53.5493 78.3316 53.7575 77.8064 53.7575Z" fill="#F7D0BA"/>
<path d="M98.1024 60.428H42.6598C42.1346 60.428 41.631 60.2198 41.2596 59.8491C40.8883 59.4785 40.6797 58.9757 40.6797 58.4516C40.6797 57.9274 40.8883 57.4246 41.2596 57.054C41.631 56.6833 42.1346 56.4751 42.6598 56.4751H98.1024C98.6275 56.4751 99.1312 56.6833 99.5025 57.054C99.8739 57.4246 100.082 57.9274 100.082 58.4516C100.082 58.9757 99.8739 59.4785 99.5025 59.8491C99.1312 60.2198 98.6275 60.428 98.1024 60.428Z" fill="#F7D0BA"/>
<path d="M29.49 60.7986H18.847C18.2236 60.7979 17.6259 60.5504 17.1851 60.1104C16.7443 59.6704 16.4963 59.0738 16.4956 58.4516V51.781C16.4963 51.1587 16.7443 50.5622 17.1851 50.1222C17.6259 49.6822 18.2236 49.4347 18.847 49.434H29.49C30.1134 49.4347 30.711 49.6822 31.1519 50.1222C31.5927 50.5622 31.8406 51.1587 31.8413 51.781V58.4516C31.8406 59.0738 31.5927 59.6704 31.1519 60.1104C30.711 60.5504 30.1134 60.7979 29.49 60.7986ZM18.847 49.9281C18.3548 49.9286 17.883 50.124 17.5349 50.4714C17.1869 50.8188 16.9912 51.2897 16.9906 51.781V58.4516C16.9912 58.9428 17.1869 59.4138 17.5349 59.7612C17.883 60.1086 18.3548 60.304 18.847 60.3045H29.49C29.9821 60.304 30.454 60.1086 30.802 59.7612C31.15 59.4138 31.3458 58.9428 31.3463 58.4516V51.781C31.3458 51.2897 31.15 50.8188 30.802 50.4714C30.454 50.124 29.9821 49.9286 29.49 49.9281H18.847Z" fill="#8F451C"/>
<path d="M77.8064 77.2278H42.6598C42.1346 77.2278 41.631 77.0195 41.2596 76.6489C40.8883 76.2782 40.6797 75.7755 40.6797 75.2513C40.6797 74.7271 40.8883 74.2244 41.2596 73.8537C41.631 73.4831 42.1346 73.2748 42.6598 73.2748H77.8064C78.3316 73.2748 78.8352 73.4831 79.2066 73.8537C79.5779 74.2244 79.7865 74.7271 79.7865 75.2513C79.7865 75.7755 79.5779 76.2782 79.2066 76.6489C78.8352 77.0195 78.3316 77.2278 77.8064 77.2278Z" fill="#F7D0BA"/>
<path d="M98.1024 83.8983H42.6598C42.1346 83.8983 41.631 83.6901 41.2596 83.3194C40.8883 82.9487 40.6797 82.446 40.6797 81.9218C40.6797 81.3976 40.8883 80.8949 41.2596 80.5243C41.631 80.1536 42.1346 79.9454 42.6598 79.9454H98.1024C98.6275 79.9454 99.1312 80.1536 99.5025 80.5243C99.8739 80.8949 100.082 81.3976 100.082 81.9218C100.082 82.446 99.8739 82.9487 99.5025 83.3194C99.1312 83.6901 98.6275 83.8983 98.1024 83.8983Z" fill="#F7D0BA"/>
<path d="M29.49 84.2691H18.847C18.2236 84.2684 17.6259 84.0209 17.1851 83.5809C16.7443 83.1409 16.4963 82.5443 16.4956 81.922V75.2515C16.4963 74.6292 16.7443 74.0326 17.1851 73.5926C17.6259 73.1526 18.2236 72.9051 18.847 72.9044H29.49C30.1134 72.9051 30.711 73.1526 31.1519 73.5926C31.5927 74.0326 31.8406 74.6292 31.8413 75.2515V81.922C31.8406 82.5443 31.5927 83.1409 31.1519 83.5809C30.711 84.0209 30.1134 84.2684 29.49 84.2691ZM18.847 73.3985C18.3548 73.3991 17.883 73.5945 17.5349 73.9418C17.1869 74.2892 16.9912 74.7602 16.9906 75.2515V81.922C16.9912 82.4133 17.1869 82.8843 17.5349 83.2316C17.883 83.579 18.3548 83.7744 18.847 83.775H29.49C29.9821 83.7744 30.454 83.579 30.802 83.2316C31.15 82.8843 31.3458 82.4133 31.3463 81.922V75.2515C31.3458 74.7602 31.15 74.2892 30.802 73.9418C30.454 73.5945 29.9821 73.3991 29.49 73.3985H18.847Z" fill="#85411B"/>
<path d="M77.8064 100.699H42.6598C42.1346 100.699 41.631 100.49 41.2596 100.12C40.8883 99.749 40.6797 99.2463 40.6797 98.7221C40.6797 98.1979 40.8883 97.6952 41.2596 97.3245C41.631 96.9538 42.1346 96.7456 42.6598 96.7456H77.8064C78.3316 96.7456 78.8352 96.9538 79.2066 97.3245C79.5779 97.6952 79.7865 98.1979 79.7865 98.7221C79.7865 99.2463 79.5779 99.749 79.2066 100.12C78.8352 100.49 78.3316 100.699 77.8064 100.699Z" fill="#FCE8DD"/>
<path d="M98.1024 107.369H42.6598C42.1346 107.369 41.631 107.161 41.2596 106.79C40.8883 106.419 40.6797 105.917 40.6797 105.393C40.6797 104.868 40.8883 104.366 41.2596 103.995C41.631 103.624 42.1346 103.416 42.6598 103.416H98.1024C98.6275 103.416 99.1312 103.624 99.5025 103.995C99.8739 104.366 100.082 104.868 100.082 105.393C100.082 105.917 99.8739 106.419 99.5025 106.79C99.1312 107.161 98.6275 107.369 98.1024 107.369Z" fill="#FCE8DD"/>
<path d="M24.1681 58.7575L23.595 58.2414C21.5598 56.3763 20.2162 55.1657 20.2162 53.6577C20.2111 53.3708 20.2638 53.0858 20.3711 52.8196C20.4784 52.5534 20.638 52.3113 20.8407 52.1078C21.0434 51.9043 21.2849 51.7434 21.551 51.6347C21.817 51.526 22.1022 51.4717 22.3897 51.475C22.729 51.4768 23.0637 51.5523 23.3708 51.6962C23.6779 51.8401 23.95 52.049 24.1681 52.3084C24.3861 52.049 24.6582 51.8401 24.9653 51.6962C25.2724 51.5523 25.6072 51.4768 25.9464 51.475C26.2339 51.4717 26.5191 51.526 26.7851 51.6347C27.0512 51.7434 27.2927 51.9043 27.4954 52.1078C27.6981 52.3113 27.8578 52.5534 27.965 52.8196C28.0723 53.0858 28.125 53.3708 28.12 53.6577C28.12 55.1657 26.7763 56.3763 24.7412 58.2414L24.1681 58.7575Z" fill="#F5B18B"/>
<path d="M24.1681 82.2279L23.595 81.7119C21.5598 79.8467 20.2162 78.6362 20.2162 77.1282C20.2111 76.8413 20.2638 76.5563 20.3711 76.29C20.4784 76.0238 20.638 75.7818 20.8407 75.5783C21.0434 75.3747 21.2849 75.2139 21.551 75.1052C21.817 74.9965 22.1022 74.9422 22.3897 74.9455C22.729 74.9473 23.0637 75.0227 23.3708 75.1667C23.6779 75.3106 23.95 75.5195 24.1681 75.7789C24.3861 75.5195 24.6582 75.3106 24.9653 75.1667C25.2724 75.0227 25.6072 74.9473 25.9464 74.9455C26.2339 74.9422 26.5191 74.9965 26.7851 75.1052C27.0512 75.2139 27.2927 75.3747 27.4954 75.5783C27.6981 75.7818 27.8578 76.0238 27.965 76.29C28.0723 76.5563 28.125 76.8413 28.12 77.1282C28.12 78.6362 26.7763 79.8467 24.7412 81.7119L24.1681 82.2279Z" fill="#F5B18B"/>
<path d="M35.9157 90H148.084C152.456 90 156 94.9247 156 101C156 107.075 152.456 112 148.084 112H35.9157C31.5439 112 28 107.075 28 101C28 94.9247 31.5439 90 35.9157 90Z" fill="#6A2E0D"/>
</svg>
