<svg width="85" height="95" viewBox="0 0 85 95" fill="none" xmlns="http://www.w3.org/2000/svg">
<path d="M81.9321 94.2112H3.06794C2.25455 94.2103 1.47474 93.8873 0.899593 93.3132C0.324441 92.7391 0.000915189 91.9608 0 91.1489V3.06231C0.000915666 2.25042 0.324441 1.47204 0.899593 0.89794C1.47474 0.323843 2.25455 0.000913986 3.06794 0H81.9321C82.7454 0.000913986 83.5253 0.323843 84.1004 0.89794C84.6756 1.47204 84.9991 2.25042 85 3.06231V91.1489C84.9991 91.9608 84.6756 92.7391 84.1004 93.3132C83.5253 93.8873 82.7454 94.2103 81.9321 94.2112ZM3.06794 0.360272C2.35025 0.361083 1.66218 0.64602 1.1547 1.15258C0.64721 1.65913 0.361746 2.34594 0.360934 3.06231V91.1489C0.361746 91.8652 0.64721 92.552 1.1547 93.0586C1.66218 93.5651 2.35025 93.8501 3.06794 93.8509H81.9321C82.6497 93.8501 83.3378 93.5651 83.8453 93.0586C84.3528 92.552 84.6383 91.8652 84.6391 91.1489V3.06231C84.6383 2.34594 84.3528 1.65913 83.8453 1.15258C83.3378 0.64602 82.6497 0.361083 81.9321 0.360272H3.06794Z" fill="#6A2E0D"/>
<path d="M84.8192 7.49194H0.180176V7.85222H84.8192V7.49194Z" fill="#6A2E0D"/>
<path d="M4.33094 5.40415C5.1283 5.40415 5.77468 4.75895 5.77468 3.96306C5.77468 3.16717 5.1283 2.52197 4.33094 2.52197C3.53359 2.52197 2.88721 3.16717 2.88721 3.96306C2.88721 4.75895 3.53359 5.40415 4.33094 5.40415Z" fill="#F5B18B"/>
<path d="M8.84266 5.40415C9.64002 5.40415 10.2864 4.75895 10.2864 3.96306C10.2864 3.16717 9.64002 2.52197 8.84266 2.52197C8.04531 2.52197 7.39893 3.16717 7.39893 3.96306C7.39893 4.75895 8.04531 5.40415 8.84266 5.40415Z" fill="#F5B18B"/>
<path d="M13.3544 5.40415C14.1517 5.40415 14.7981 4.75895 14.7981 3.96306C14.7981 3.16717 14.1517 2.52197 13.3544 2.52197C12.557 2.52197 11.9106 3.16717 11.9106 3.96306C11.9106 4.75895 12.557 5.40415 13.3544 5.40415Z" fill="#F5B18B"/>
<path d="M70.6528 20.7156H14.347C13.7248 20.7156 13.1281 20.4689 12.6881 20.0298C12.2482 19.5906 12.001 18.9949 12.001 18.3739C12.001 17.7528 12.2482 17.1572 12.6881 16.718C13.1281 16.2788 13.7248 16.0321 14.347 16.0321H70.6528C71.275 16.0321 71.8717 16.2788 72.3117 16.718C72.7517 17.1572 72.9989 17.7528 72.9989 18.3739C72.9989 18.9949 72.7517 19.5906 72.3117 20.0298C71.8717 20.4689 71.275 20.7156 70.6528 20.7156ZM14.347 16.3924C13.8206 16.3924 13.3156 16.6011 12.9434 16.9727C12.5711 17.3443 12.3619 17.8483 12.3619 18.3739C12.3619 18.8994 12.5711 19.4034 12.9434 19.775C13.3156 20.1466 13.8206 20.3554 14.347 20.3554H70.6528C71.1793 20.3554 71.6842 20.1466 72.0565 19.775C72.4288 19.4034 72.6379 18.8994 72.6379 18.3739C72.6379 17.8483 72.4288 17.3443 72.0565 16.9727C71.6842 16.6011 71.1793 16.3924 70.6528 16.3924H14.347Z" fill="#6A2E0D"/>
<path d="M56.7307 39.1959H31.1044C30.7215 39.1959 30.3543 39.0441 30.0835 38.7738C29.8128 38.5036 29.6606 38.137 29.6606 37.7548C29.6606 37.3726 29.8128 37.0061 30.0835 36.7358C30.3543 36.4655 30.7215 36.3137 31.1044 36.3137H56.7307C57.1136 36.3137 57.4808 36.4655 57.7516 36.7358C58.0223 37.0061 58.1744 37.3726 58.1744 37.7548C58.1744 38.137 58.0223 38.5036 57.7516 38.7738C57.4808 39.0441 57.1136 39.1959 56.7307 39.1959Z" fill="#F7D0BA"/>
<path d="M71.529 44.0595H31.1044C30.7215 44.0595 30.3543 43.9077 30.0835 43.6375C29.8128 43.3672 29.6606 43.0007 29.6606 42.6185C29.6606 42.2363 29.8128 41.8697 30.0835 41.5995C30.3543 41.3292 30.7215 41.1774 31.1044 41.1774H71.529C71.9119 41.1774 72.2791 41.3292 72.5499 41.5995C72.8206 41.8697 72.9727 42.2363 72.9727 42.6185C72.9727 43.0007 72.8206 43.3672 72.5499 43.6375C72.2791 43.9077 71.9119 44.0595 71.529 44.0595Z" fill="#F7D0BA"/>
<path d="M21.5019 44.3298H13.7418C13.2872 44.3293 12.8515 44.1489 12.5301 43.828C12.2087 43.5072 12.0279 43.0723 12.0273 42.6185V37.7549C12.0279 37.3012 12.2087 36.8662 12.5301 36.5454C12.8515 36.2246 13.2872 36.0441 13.7418 36.0436H21.5019C21.9564 36.0441 22.3922 36.2246 22.7136 36.5454C23.035 36.8662 23.2158 37.3012 23.2163 37.7549V42.6185C23.2158 43.0723 23.035 43.5072 22.7136 43.828C22.3922 44.1489 21.9564 44.3293 21.5019 44.3298ZM13.7418 36.4039C13.3829 36.4042 13.0389 36.5467 12.7852 36.8C12.5314 37.0533 12.3887 37.3967 12.3883 37.7549V42.6185C12.3887 42.9767 12.5314 43.3201 12.7852 43.5734C13.0389 43.8267 13.3829 43.9692 13.7418 43.9696H21.5019C21.8607 43.9692 22.2047 43.8267 22.4585 43.5734C22.7122 43.3201 22.855 42.9767 22.8554 42.6185V37.7549C22.855 37.3967 22.7122 37.0533 22.4585 36.8C22.2047 36.5467 21.8607 36.4042 21.5019 36.4039H13.7418Z" fill="#8F451C"/>
<path d="M56.7307 56.3088H31.1044C30.7215 56.3088 30.3543 56.157 30.0835 55.8867C29.8128 55.6165 29.6606 55.2499 29.6606 54.8677C29.6606 54.4855 29.8128 54.119 30.0835 53.8487C30.3543 53.5785 30.7215 53.4266 31.1044 53.4266H56.7307C57.1136 53.4266 57.4808 53.5785 57.7516 53.8487C58.0223 54.119 58.1744 54.4855 58.1744 54.8677C58.1744 55.2499 58.0223 55.6165 57.7516 55.8867C57.4808 56.157 57.1136 56.3088 56.7307 56.3088Z" fill="#F7D0BA"/>
<path d="M71.529 61.1725H31.1044C30.7215 61.1725 30.3543 61.0206 30.0835 60.7504C29.8128 60.4801 29.6606 60.1136 29.6606 59.7314C29.6606 59.3492 29.8128 58.9826 30.0835 58.7124C30.3543 58.4421 30.7215 58.2903 31.1044 58.2903H71.529C71.9119 58.2903 72.2791 58.4421 72.5499 58.7124C72.8206 58.9826 72.9727 59.3492 72.9727 59.7314C72.9727 60.1136 72.8206 60.4801 72.5499 60.7504C72.2791 61.0206 71.9119 61.1725 71.529 61.1725Z" fill="#F7D0BA"/>
<path d="M21.5019 61.4428H13.7418C13.2872 61.4422 12.8515 61.2618 12.5301 60.941C12.2087 60.6201 12.0279 60.1852 12.0273 59.7315V54.8678C12.0279 54.4141 12.2087 53.9791 12.5301 53.6583C12.8515 53.3375 13.2872 53.157 13.7418 53.1565H21.5019C21.9564 53.157 22.3922 53.3375 22.7136 53.6583C23.035 53.9791 23.2158 54.4141 23.2163 54.8678V59.7315C23.2158 60.1852 23.035 60.6201 22.7136 60.941C22.3922 61.2618 21.9564 61.4422 21.5019 61.4428ZM13.7418 53.5168C13.3829 53.5172 13.0389 53.6596 12.7852 53.9129C12.5314 54.1662 12.3887 54.5096 12.3883 54.8678V59.7315C12.3887 60.0897 12.5314 60.4331 12.7852 60.6863C13.0389 60.9396 13.3829 61.0821 13.7418 61.0825H21.5019C21.8607 61.0821 22.2047 60.9396 22.4585 60.6863C22.7122 60.4331 22.855 60.0897 22.8554 59.7315V54.8678C22.855 54.5096 22.7122 54.1662 22.4585 53.9129C22.2047 53.6596 21.8607 53.5172 21.5019 53.5168H13.7418Z" fill="#85411B"/>
<path d="M56.7307 73.4219H31.1044C30.7215 73.4219 30.3543 73.27 30.0835 72.9998C29.8128 72.7295 29.6606 72.363 29.6606 71.9808C29.6606 71.5986 29.8128 71.232 30.0835 70.9618C30.3543 70.6915 30.7215 70.5397 31.1044 70.5397H56.7307C57.1136 70.5397 57.4808 70.6915 57.7516 70.9618C58.0223 71.232 58.1744 71.5986 58.1744 71.9808C58.1744 72.363 58.0223 72.7295 57.7516 72.9998C57.4808 73.27 57.1136 73.4219 56.7307 73.4219Z" fill="#FCE8DD"/>
<path d="M71.529 78.2855H31.1044C30.7215 78.2855 30.3543 78.1337 30.0835 77.8634C29.8128 77.5932 29.6606 77.2266 29.6606 76.8444C29.6606 76.4622 29.8128 76.0957 30.0835 75.8254C30.3543 75.5551 30.7215 75.4033 31.1044 75.4033H71.529C71.9119 75.4033 72.2791 75.5551 72.5499 75.8254C72.8206 76.0957 72.9727 76.4622 72.9727 76.8444C72.9727 77.2266 72.8206 77.5932 72.5499 77.8634C72.2791 78.1337 71.9119 78.2855 71.529 78.2855Z" fill="#FCE8DD"/>
<path d="M21.5019 78.5557H13.7418C13.2872 78.5552 12.8515 78.3747 12.5301 78.0539C12.2087 77.7331 12.0279 77.2981 12.0273 76.8444V71.9807C12.0279 71.527 12.2087 71.092 12.5301 70.7712C12.8515 70.4504 13.2872 70.2699 13.7418 70.2694H21.5019C21.9564 70.2699 22.3922 70.4504 22.7136 70.7712C23.035 71.092 23.2158 71.527 23.2163 71.9807V76.8444C23.2158 77.2981 23.035 77.7331 22.7136 78.0539C22.3922 78.3747 21.9564 78.5552 21.5019 78.5557Z" fill="#FCE8DD"/>
<path d="M17.6214 42.8415L17.2036 42.4653C15.7197 41.1054 14.74 40.2227 14.74 39.1232C14.7363 38.914 14.7747 38.7062 14.8529 38.5121C14.9312 38.318 15.0476 38.1415 15.1954 37.9931C15.3431 37.8447 15.5192 37.7274 15.7132 37.6482C15.9072 37.5689 16.1152 37.5293 16.3248 37.5317C16.5721 37.533 16.8162 37.5881 17.0401 37.693C17.2641 37.7979 17.4624 37.9503 17.6214 38.1394C17.7804 37.9503 17.9788 37.7979 18.2027 37.693C18.4266 37.5881 18.6707 37.533 18.9181 37.5317C19.1277 37.5293 19.3356 37.5689 19.5296 37.6482C19.7236 37.7274 19.8997 37.8447 20.0475 37.9931C20.1952 38.1415 20.3117 38.318 20.3899 38.5121C20.4681 38.7062 20.5065 38.914 20.5029 39.1232C20.5029 40.2227 19.5232 41.1054 18.0393 42.4653L17.6214 42.8415Z" fill="#F5B18B"/>
<path d="M17.6214 59.9545L17.2036 59.5782C15.7197 58.2183 14.74 57.3356 14.74 56.2361C14.7363 56.0269 14.7747 55.8191 14.8529 55.625C14.9312 55.4309 15.0476 55.2544 15.1954 55.106C15.3431 54.9576 15.5192 54.8403 15.7132 54.7611C15.9072 54.6818 16.1152 54.6422 16.3248 54.6446C16.5721 54.6459 16.8162 54.701 17.0401 54.8059C17.2641 54.9109 17.4624 55.0632 17.6214 55.2523C17.7804 55.0632 17.9788 54.9109 18.2027 54.8059C18.4266 54.701 18.6707 54.6459 18.9181 54.6446C19.1277 54.6422 19.3356 54.6818 19.5296 54.7611C19.7236 54.8403 19.8997 54.9576 20.0475 55.106C20.1952 55.2544 20.3117 55.4309 20.3899 55.625C20.4681 55.8191 20.5065 56.0269 20.5029 56.2361C20.5029 57.3356 19.5232 58.2183 18.0393 59.5782L17.6214 59.9545Z" fill="#F5B18B"/>
</svg>
