<svg width="199" height="157" viewBox="0 0 199 157" fill="none" xmlns="http://www.w3.org/2000/svg">
<g clip-path="url(#clip0_1265_3356)">
<path d="M198.616 156.909H0.381877C0.280494 156.908 0.183361 156.868 0.111776 156.796C0.0401914 156.724 0 156.627 0 156.525C0 156.424 0.0401914 156.326 0.111776 156.254C0.183361 156.182 0.280494 156.142 0.381877 156.142H198.616C198.717 156.142 198.815 156.182 198.887 156.254C198.959 156.326 198.999 156.423 198.999 156.525C198.999 156.627 198.959 156.724 198.887 156.796C198.815 156.868 198.717 156.909 198.616 156.909Z" fill="#CACACA"/>
<path d="M94.5263 92.0565C94.5907 92.3397 94.6326 92.6276 94.6518 92.9175L117.167 105.927L122.64 102.772L128.474 110.422L119.328 116.951C118.589 117.478 117.699 117.752 116.792 117.729C115.885 117.707 115.009 117.391 114.297 116.828L91.0798 98.4828C90.032 98.8712 88.891 98.931 87.8084 98.6541C86.7259 98.3772 85.7532 97.7768 85.0197 96.9326C84.2862 96.0885 83.8267 95.0408 83.7022 93.9287C83.5778 92.8166 83.7943 91.6929 84.323 90.7071C84.8517 89.7213 85.6676 88.92 86.662 88.41C87.6565 87.8999 88.7824 87.7051 89.8901 87.8516C90.9977 87.9981 92.0346 88.4789 92.8628 89.23C93.691 89.9811 94.2712 90.967 94.5263 92.0565Z" fill="#FFB6B6"/>
<path d="M132.679 95.007C132.674 94.2308 132.395 93.4813 131.891 92.8916C131.387 92.3018 130.691 91.91 129.926 91.7854L82.8585 84.0441C82.4072 83.9693 81.9453 83.9898 81.5023 84.1045L70.4718 86.9612L64.1429 88.6022L52.4631 91.6262C51.758 91.8096 51.1337 92.2222 50.6879 92.7993C50.2421 93.3764 50.0002 94.0853 50 94.815V133.453C50.0035 134.206 50.2633 134.935 50.7365 135.521C51.2098 136.106 51.8681 136.512 52.6028 136.672L100.544 146.888C100.769 146.937 100.999 146.961 101.229 146.96C101.564 146.96 101.898 146.909 102.218 146.809L130.701 137.8C131.373 137.59 131.96 137.168 132.374 136.598C132.788 136.027 133.008 135.338 133 134.633L132.679 95.007Z" fill="white"/>
<path d="M82.3238 86.8813C82.2894 86.8813 82.2552 86.8857 82.222 86.8945L53.1826 94.4163C53.0945 94.4391 53.0165 94.4906 52.9609 94.5626C52.9052 94.6347 52.875 94.7232 52.875 94.8143V133.452C52.8753 133.546 52.9077 133.637 52.9668 133.71C53.0259 133.783 53.1082 133.834 53.1999 133.854L101.141 144.07C101.211 144.085 101.283 144.081 101.35 144.06L129.834 135.051C129.918 135.025 129.991 134.972 130.043 134.901C130.094 134.83 130.122 134.744 130.12 134.656L129.801 95.03C129.801 94.933 129.766 94.8395 129.703 94.7658C129.64 94.6922 129.553 94.6433 129.457 94.6277L82.3901 86.8867C82.3682 86.8832 82.346 86.8814 82.3238 86.8813Z" fill="#F5B18B"/>
<path d="M132.679 95.007C132.674 94.2308 132.395 93.4813 131.891 92.8916C131.387 92.3018 130.691 91.91 129.926 91.7854L82.8585 84.0441C82.4072 83.9693 81.9453 83.9898 81.5023 84.1045L70.4718 86.9612L64.1429 88.6022L52.4631 91.6262C51.758 91.8096 51.1337 92.2222 50.6879 92.7993C50.2421 93.3764 50.0002 94.0853 50 94.815V133.453C50.0035 134.206 50.2633 134.935 50.7365 135.521C51.2098 136.106 51.8681 136.512 52.6028 136.672L100.544 146.888C100.769 146.937 100.999 146.961 101.229 146.96C101.564 146.96 101.898 146.909 102.218 146.809L130.701 137.8C131.373 137.59 131.96 137.168 132.374 136.598C132.788 136.027 133.008 135.338 133 134.633L132.679 95.007ZM130.454 137.015L101.971 146.024C101.565 146.151 101.133 146.171 100.717 146.084L52.7727 135.868C52.2218 135.747 51.7283 135.443 51.3737 135.004C51.019 134.565 50.8244 134.018 50.8219 133.453V94.815C50.8223 94.3093 50.9775 93.8159 51.2665 93.4012C51.5555 92.9866 51.9646 92.6707 52.4384 92.4961C52.5137 92.4679 52.5905 92.444 52.6686 92.4248L65.0251 89.2251L72.3322 87.3316L81.7078 84.903C81.9089 84.8493 82.1162 84.8225 82.3243 84.8235C82.4583 84.8234 82.5921 84.8344 82.7243 84.8564L129.791 92.5977C130.17 92.66 130.529 92.8096 130.84 93.0349C131.151 93.2602 131.406 93.5549 131.583 93.8957C131.761 94.2412 131.855 94.6239 131.857 95.0126L132.178 134.638C132.184 135.167 132.019 135.684 131.709 136.112C131.398 136.54 130.959 136.857 130.454 137.015Z" fill="#3F3D56"/>
<path d="M131.585 93.8956C131.553 93.9167 131.518 93.9324 131.481 93.9423L117.636 97.6908L113.327 98.8571L101.069 102.175C101.034 102.183 100.998 102.188 100.962 102.188C100.937 102.188 100.912 102.186 100.888 102.183L51.4618 93.1574L51.2974 93.1273C51.1902 93.1072 51.0954 93.0454 51.0336 92.9555C50.9718 92.8655 50.9481 92.7548 50.9676 92.6473C50.9872 92.5399 51.0484 92.4447 51.138 92.3824C51.2275 92.3201 51.338 92.2959 51.4453 92.315L52.4399 92.4961L100.945 101.354L111.51 98.4948L117.42 96.895L131.05 93.2041L131.267 93.1465C131.36 93.1218 131.46 93.1307 131.547 93.1719C131.635 93.213 131.705 93.2836 131.746 93.3715C131.757 93.3924 131.765 93.4145 131.771 93.4373C131.794 93.5236 131.788 93.6149 131.754 93.6975C131.721 93.7802 131.661 93.8497 131.585 93.8956Z" fill="#3F3D56"/>
<path d="M101.373 147.056C101.264 147.056 101.16 147.013 101.083 146.936C101.006 146.86 100.963 146.756 100.962 146.648L100.551 101.781C100.55 101.671 100.592 101.566 100.669 101.488C100.745 101.411 100.849 101.366 100.958 101.365H100.962C101.07 101.365 101.174 101.408 101.251 101.484C101.328 101.561 101.372 101.665 101.373 101.773L101.784 146.64C101.785 146.749 101.742 146.855 101.666 146.932C101.59 147.01 101.485 147.055 101.376 147.056H101.373Z" fill="#3F3D56"/>
<path d="M117.633 141.597L113.323 142.764L111.506 98.4947L65.1571 89.2578C65.1117 89.2497 65.0669 89.2387 65.0229 89.2249C64.6668 89.1233 64.3558 88.9037 64.1406 88.6019L70.4696 86.9609L72.3299 87.3314L116.309 96.0935C116.541 96.1393 116.759 96.2346 116.95 96.3729C117.141 96.5112 117.3 96.6892 117.416 96.8948C117.553 97.1336 117.63 141.312 117.633 141.597Z" fill="#6A2E0D"/>
<path d="M69.5419 122.185C69.4906 122.185 69.4396 122.18 69.3896 122.168L55.1348 118.944C54.9565 118.904 54.8016 118.794 54.7041 118.639C54.6066 118.484 54.5743 118.297 54.6146 118.118C54.6548 117.94 54.7641 117.785 54.9186 117.687C55.0731 117.589 55.26 117.556 55.4384 117.596L69.6932 120.82C69.8587 120.858 70.0046 120.955 70.103 121.093C70.2015 121.232 70.2456 121.402 70.2268 121.571C70.2081 121.739 70.1279 121.896 70.0015 122.009C69.8752 122.122 69.7115 122.185 69.5419 122.185Z" fill="white"/>
<path d="M52.5188 98.0743C58.8804 98.0743 64.0376 92.9089 64.0376 86.5371C64.0376 80.1653 58.8804 75 52.5188 75C46.1571 75 41 80.1653 41 86.5371C41 92.9089 46.1571 98.0743 52.5188 98.0743Z" fill="#10B80D"/>
<path d="M50.9471 92.5419C50.7482 92.5419 50.552 92.4955 50.3741 92.4064C50.1962 92.3173 50.0415 92.1879 49.9222 92.0285L46.7797 87.8317C46.5758 87.5594 46.4883 87.2172 46.5363 86.8802C46.5844 86.5433 46.7641 86.2393 47.036 86.0351C47.3078 85.8309 47.6496 85.7432 47.986 85.7914C48.3224 85.8395 48.6259 86.0195 48.8298 86.2918L50.8857 89.0372L56.1661 81.1041C56.2592 80.9633 56.3791 80.8423 56.519 80.748C56.6588 80.6537 56.8159 80.588 56.9812 80.5546C57.1465 80.5212 57.3167 80.5209 57.4821 80.5535C57.6475 80.5861 57.8049 80.6512 57.9452 80.7448C58.0855 80.8385 58.2059 80.959 58.2996 81.0994C58.3933 81.2398 58.4585 81.3973 58.4913 81.563C58.5241 81.7286 58.5239 81.8991 58.4908 82.0647C58.4577 82.2303 58.3923 82.3877 58.2983 82.5279L52.0134 91.9704C51.8997 92.1412 51.7467 92.2822 51.5674 92.3815C51.3881 92.4809 51.1876 92.5358 50.9828 92.5415C50.9709 92.5417 50.959 92.5419 50.9471 92.5419Z" fill="white"/>
</g>
<defs>
<clipPath id="clip0_1265_3356">
<rect width="199" height="157" fill="white"/>
</clipPath>
</defs>
</svg>
