<svg width="199" height="157" viewBox="0 0 199 157" fill="none" xmlns="http://www.w3.org/2000/svg">
<g clip-path="url(#clip0_1265_3313)">
<path d="M47.7765 85.1233C46.1883 76.6096 48.6887 66.9238 55.6386 61.7705C55.2447 71.1808 58.1868 80.4274 63.9443 87.8742C66.1752 90.7381 68.9541 93.6907 68.8678 97.3221C68.8141 99.5816 67.5941 101.687 65.9863 103.272C64.3784 104.858 62.3978 106.002 60.4409 107.127L60.1363 107.602C54.3998 101.121 49.3647 93.637 47.7765 85.1233Z" fill="#F0F6FF"/>
<path d="M55.7645 61.9005C52.8447 68.4457 52.0581 75.746 53.5165 82.7644C53.8037 84.2809 54.3277 85.7426 55.0693 87.0957C55.8343 88.3903 56.9314 89.4562 58.2467 90.1825C59.4596 90.8845 60.7813 91.4618 61.8027 92.4468C62.318 92.9587 62.7195 93.574 62.9808 94.2523C63.242 94.9306 63.3572 95.6565 63.3187 96.3825C63.2698 98.1939 62.574 99.8797 61.8363 101.505C61.0173 103.309 60.138 105.17 60.1912 107.198C60.1976 107.444 59.8165 107.439 59.8101 107.194C59.7177 103.665 62.2649 100.831 62.8325 97.4447C63.0973 95.8646 62.8884 94.1951 61.7793 92.9703C60.8094 91.8993 59.447 91.3028 58.2128 90.6027C56.9193 89.913 55.8141 88.9166 54.9937 87.7004C54.1857 86.3895 53.6063 84.9505 53.2803 83.4449C52.4925 80.0671 52.2398 76.5863 52.5315 73.1299C52.8426 69.1833 53.8254 65.319 55.4375 61.7044C55.5374 61.4807 55.8638 61.6782 55.7645 61.9005Z" fill="white"/>
<path d="M52.9141 80.5322C51.7052 80.6175 50.5054 80.2695 49.529 79.5505C48.5526 78.8315 47.8632 77.7883 47.5838 76.6072C47.5281 76.368 47.8966 76.2701 47.9524 76.5096C48.2105 77.6099 48.8528 78.5816 49.7634 79.2493C50.674 79.9169 51.7928 80.2366 52.9181 80.1505C53.1626 80.1321 53.1572 80.5139 52.9141 80.5322Z" fill="white"/>
<path d="M57.5858 89.9077C59.2269 88.049 60.1083 85.639 60.0541 83.1583C60.0485 82.9125 60.4296 82.9168 60.4352 83.1623C60.4867 85.7439 59.5645 88.25 57.8525 90.1805C57.6892 90.3643 57.4234 90.0906 57.5858 89.9077Z" fill="white"/>
<path d="M53.2902 69.4202C53.7648 69.4848 54.248 69.4304 54.6964 69.2617C55.1448 69.0931 55.5444 68.8156 55.8593 68.4541C56.0202 68.2682 56.2858 68.5421 56.1259 68.7268C55.7762 69.1246 55.3345 69.4306 54.8395 69.618C54.3445 69.8054 53.8112 69.8685 53.2862 69.8019C53.2362 69.7997 53.1889 69.7786 53.1539 69.7428C53.1188 69.707 53.0987 69.6591 53.0977 69.609C53.0984 69.5585 53.1191 69.5103 53.1552 69.4749C53.1912 69.4396 53.2398 69.4199 53.2902 69.4202Z" fill="white"/>
<path d="M84.0578 68.8123C83.9606 68.9313 83.8634 69.0502 83.7671 69.1722C82.4689 70.7779 81.3032 72.4865 80.2813 74.2812C80.2001 74.4187 80.1199 74.5593 80.0428 74.6988C77.6269 79.049 76.0383 83.8106 75.3579 88.7416C75.0889 90.704 74.9694 92.6841 75.0004 94.6647C75.0434 97.3999 75.3072 100.362 74.4701 102.878C74.3857 103.141 74.2851 103.399 74.1689 103.65L60.736 107.937C60.7006 107.931 60.666 107.929 60.6305 107.923L60.1019 108.119C60.0932 108.017 60.0864 107.911 60.0777 107.809C60.0723 107.75 60.07 107.69 60.0647 107.63C60.0621 107.591 60.0597 107.551 60.0551 107.515C60.0542 107.502 60.0534 107.489 60.0535 107.478C60.0489 107.443 60.0484 107.409 60.0447 107.376C60.0048 106.784 59.9678 106.19 59.9372 105.595C59.9362 105.592 59.9362 105.592 59.9382 105.588C59.7076 101.053 59.853 96.4587 60.69 92.0327C60.7153 91.8995 60.7394 91.7634 60.7707 91.6282C61.1591 89.6353 61.7094 87.6775 62.4162 85.7743C62.8065 84.7335 63.2492 83.7131 63.7426 82.7171C65.0224 80.146 66.6979 77.7925 68.7079 75.7429C72.7153 71.6576 77.9825 68.9015 83.6265 68.8148C83.7709 68.8126 83.9124 68.8114 84.0578 68.8123Z" fill="#F0F6FF"/>
<path d="M84.0843 68.9929C77.8186 72.4581 72.8022 77.8126 69.7478 84.2959C69.0655 85.68 68.6053 87.163 68.3841 88.6906C68.2166 90.1856 68.4519 91.6982 69.0655 93.0714C69.612 94.3632 70.3203 95.6212 70.5437 97.0236C70.6474 97.7431 70.5981 98.4765 70.399 99.1756C70.1999 99.8747 69.8555 100.524 69.3884 101.08C68.2604 102.497 66.6915 103.423 65.1258 104.276C63.3874 105.223 61.5667 106.178 60.3899 107.83C60.2473 108.03 59.9457 107.797 60.088 107.597C62.1355 104.723 65.873 103.996 68.3616 101.635C69.5229 100.533 70.3596 99.0742 70.2103 97.4275C70.0797 95.9875 69.3504 94.6896 68.7858 93.3864C68.1676 92.0557 67.8842 90.5936 67.9602 89.1278C68.103 87.5939 68.5054 86.0956 69.1502 84.6969C70.5515 81.5248 72.4421 78.5932 74.7528 76.0093C77.3735 73.0458 80.4811 70.5531 83.9411 68.6391C84.1553 68.5207 84.2971 68.8753 84.0843 68.9929Z" fill="white"/>
<path d="M70.6083 82.1503C69.5919 81.4894 68.8431 80.4881 68.4957 79.3252C68.1483 78.1623 68.2249 76.9137 68.7118 75.8021C68.8111 75.5776 69.1642 75.7216 69.0648 75.9464C68.6094 76.9806 68.5382 78.1438 68.8639 79.226C69.1896 80.3082 69.8908 81.2381 70.8409 81.848C71.0473 81.9807 70.8135 82.2823 70.6083 82.1503Z" fill="white"/>
<path d="M68.7005 92.4529C71.1281 91.9584 73.2805 90.5656 74.7284 88.5523C74.8717 88.3527 75.1734 88.5859 75.0303 88.7853C73.5197 90.8776 71.2768 92.3224 68.7495 92.8314C68.5085 92.8798 68.4609 92.5009 68.7005 92.4529Z" fill="white"/>
<path d="M77.5857 73.5042C77.9258 73.842 78.3443 74.0899 78.8037 74.2257C79.2631 74.3615 79.749 74.3808 80.2177 74.282C80.4579 74.2306 80.5053 74.6095 80.2666 74.6606C79.7483 74.7673 79.2117 74.7453 78.7038 74.5964C78.1959 74.4475 77.7322 74.1763 77.353 73.8065C77.3144 73.7746 77.2893 73.7292 77.2829 73.6795C77.2765 73.6298 77.2892 73.5795 77.3184 73.5388C77.3494 73.4989 77.3949 73.4729 77.4449 73.4664C77.495 73.4599 77.5456 73.4735 77.5857 73.5042Z" fill="white"/>
<path d="M105.158 22.2567C105.203 22.4548 105.232 22.6562 105.246 22.859L120.995 31.9593L124.823 29.752L128.904 35.1032L122.507 39.6704C121.99 40.0394 121.367 40.2305 120.733 40.215C120.098 40.1995 119.486 39.9783 118.988 39.5846L102.747 26.7519C102.014 27.0237 101.216 27.0655 100.459 26.8718C99.7015 26.6781 99.0211 26.2581 98.5081 25.6676C97.995 25.0771 97.6735 24.3442 97.5865 23.5663C97.4994 22.7884 97.6509 22.0024 98.0207 21.3128C98.3905 20.6232 98.9612 20.0628 99.6569 19.706C100.352 19.3492 101.14 19.2129 101.915 19.3154C102.69 19.4179 103.415 19.7542 103.994 20.2796C104.574 20.805 104.98 21.4946 105.158 22.2567Z" fill="#FFB6B6"/>
<path d="M112.793 107.781C112.789 107.06 112.53 106.365 112.062 105.817C111.594 105.27 110.948 104.906 110.238 104.79L66.5524 97.6054C66.1335 97.5359 65.7047 97.555 65.2936 97.6614L55.0556 100.313L49.1814 101.836L38.3408 104.643C37.6864 104.813 37.1069 105.196 36.6932 105.732C36.2794 106.267 36.0549 106.925 36.0547 107.602V153.451C36.0579 154.15 36.2991 154.827 36.7383 155.37C37.1775 155.914 37.7885 156.291 38.4705 156.439L82.9672 155.934C83.1761 155.979 83.3892 156.001 83.6029 156C83.9142 156.001 84.2238 155.954 84.5209 155.86L110.957 156.519C111.581 156.324 112.126 155.933 112.51 155.404C112.895 154.874 113.098 154.235 113.091 153.58L112.793 107.781Z" fill="#FEE5C7"/>
<path d="M112.793 107.781C112.789 107.06 112.53 106.365 112.062 105.817C111.594 105.27 110.948 104.906 110.238 104.79L66.5524 97.6054C66.1335 97.5359 65.7047 97.555 65.2936 97.6614L55.0556 100.313L49.1814 101.836L38.3408 104.643C37.6864 104.813 37.1069 105.196 36.6932 105.732C36.2794 106.267 36.0549 106.925 36.0547 107.602V153.451C36.0579 154.15 36.2991 154.827 36.7383 155.37C37.1775 155.914 37.7885 156.291 38.4705 156.439L82.9672 155.934C83.1761 155.979 83.3892 156.001 83.6029 156C83.9142 156.001 84.2238 155.954 84.5209 155.86L110.957 156.519C111.581 156.324 112.126 155.933 112.51 155.404C112.895 154.874 113.098 154.235 113.091 153.58L112.793 107.781ZM110.729 155.791L84.292 156.421C83.9149 156.538 83.514 156.558 83.1273 156.477L38.6282 155.693C38.1169 155.581 37.6588 155.298 37.3297 154.891C37.0005 154.483 36.8199 153.975 36.8176 153.451V107.602C36.8179 107.133 36.9619 106.675 37.2302 106.29C37.4985 105.905 37.8781 105.612 38.3179 105.45C38.3878 105.424 38.4591 105.402 38.5315 105.384L50.0003 102.414L56.7823 100.657L65.4843 98.4026C65.6709 98.3527 65.8633 98.3279 66.0565 98.3287C66.1809 98.3287 66.305 98.3389 66.4277 98.3593L110.113 105.544C110.465 105.602 110.798 105.741 111.087 105.95C111.375 106.159 111.611 106.433 111.776 106.749C111.941 107.07 112.028 107.425 112.031 107.786L112.328 153.585C112.334 154.076 112.181 154.556 111.893 154.953C111.605 155.35 111.196 155.644 110.729 155.791Z" fill="#CCCCCC"/>
<path d="M111.776 106.749C111.746 106.769 111.714 106.783 111.679 106.793L98.8298 110.272L94.8298 111.354L83.4526 114.434C83.4201 114.442 83.3869 114.446 83.3534 114.446C83.3305 114.446 83.3075 114.444 83.2847 114.441L37.4098 106.064L37.2573 106.036C37.1579 106.017 37.0699 105.96 37.0126 105.877C36.9554 105.793 36.9334 105.69 36.9515 105.591C36.9697 105.491 37.0265 105.403 37.1095 105.345C37.1925 105.287 37.295 105.265 37.3946 105.282L38.3177 105.45L83.3381 113.672L93.1438 111.018L98.6289 109.533L111.28 106.107L111.481 106.054C111.568 106.031 111.66 106.039 111.741 106.078C111.823 106.116 111.888 106.181 111.926 106.263C111.936 106.282 111.944 106.303 111.949 106.324C111.97 106.404 111.964 106.489 111.933 106.565C111.902 106.642 111.847 106.707 111.776 106.749Z" fill="#EED6B9"/>
<path d="M83.7356 156.09C83.5265 156.09 83.3561 155.921 83.3541 157L82.9727 115.356C82.9707 113.857 83.14 113.684 83.3506 113.682H83.3541C83.5632 113.682 83.7336 113.851 83.7356 115.349L84.117 156.993C84.119 155.915 83.9496 156.088 83.739 156.09H83.7356Z" fill="#8BA3CC"/>
<path d="M98.9404 156.573L94.8322 156.617L93.1462 111.018L50.127 102.445C50.0849 102.437 50.0433 102.427 50.0024 102.414C49.672 102.32 49.3833 102.116 49.1836 101.836L55.0578 100.313L56.7845 100.657L97.604 108.789C97.8187 108.832 98.0216 108.92 98.1989 109.049C98.3763 109.177 98.5238 109.342 98.6314 109.533C98.7585 109.755 98.9379 156.308 98.9404 156.573Z" fill="#CCC68B"/>
<path d="M131.846 24.3201C131.843 23.7771 131.647 23.2528 131.295 22.8403C130.942 22.4278 130.455 22.1537 129.92 22.0665L96.9964 16.6515C96.6807 16.5991 96.3575 16.6135 96.0477 16.6937L88.3318 18.692L83.9047 19.8398L75.7346 21.9552C75.2414 22.0835 74.8047 22.3721 74.4929 22.7758C74.1811 23.1794 74.0119 23.6753 74.0117 24.1857V51.2131C74.0142 51.7398 74.1959 52.25 74.5269 52.6594C74.8579 53.0688 75.3184 53.3528 75.8324 53.4647L109.367 60.6112C109.525 60.6451 109.686 60.6618 109.847 60.6611C110.081 60.6616 110.315 60.626 110.538 60.5556L130.462 54.2537C130.933 54.1067 131.343 53.8118 131.633 53.4128C131.922 53.0137 132.076 52.5318 132.07 52.0385L131.846 24.3201Z" fill="white"/>
<path d="M96.623 18.6362C96.5989 18.6362 96.575 18.6393 96.5518 18.6454L76.2386 23.907C76.177 23.9229 76.1225 23.9589 76.0835 24.0093C76.0446 24.0597 76.0234 24.1216 76.0234 24.1853V51.2123C76.0237 51.2781 76.0463 51.3419 76.0877 51.393C76.129 51.4442 76.1865 51.4797 76.2507 51.4937L109.786 58.6401C109.834 58.6503 109.885 58.6478 109.932 58.6329L129.856 52.3312C129.915 52.3129 129.966 52.276 130.003 52.2262C130.039 52.1763 130.058 52.1161 130.057 52.0545L129.834 24.3362C129.833 24.2684 129.809 24.203 129.765 24.1515C129.721 24.1 129.66 24.0657 129.593 24.0549L96.6694 18.64C96.654 18.6375 96.6385 18.6363 96.623 18.6362Z" fill="#F5B18B"/>
<path d="M131.846 24.3201C131.843 23.7771 131.647 23.2528 131.295 22.8403C130.942 22.4278 130.455 22.1537 129.92 22.0665L96.9964 16.6515C96.6807 16.5991 96.3575 16.6135 96.0477 16.6937L88.3318 18.692L83.9047 19.8398L75.7346 21.9552C75.2414 22.0835 74.8047 22.3721 74.4929 22.7758C74.1811 23.1794 74.0119 23.6753 74.0117 24.1857V51.2131C74.0142 51.7398 74.1959 52.25 74.5269 52.6594C74.8579 53.0688 75.3184 53.3528 75.8324 53.4647L109.367 60.6112C109.525 60.6451 109.686 60.6618 109.847 60.6611C110.081 60.6616 110.315 60.626 110.538 60.5556L130.462 54.2537C130.933 54.1067 131.343 53.8118 131.633 53.4128C131.922 53.0137 132.076 52.5318 132.07 52.0385L131.846 24.3201ZM130.29 53.7047L110.366 60.0066C110.082 60.0952 109.78 60.1098 109.488 60.0488L75.9512 52.9023C75.5659 52.8181 75.2207 52.6049 74.9726 52.2978C74.7245 51.9907 74.5884 51.6081 74.5867 51.2131V24.1857C74.5869 23.832 74.6955 23.4868 74.8976 23.1968C75.0998 22.9068 75.3859 22.6858 75.7174 22.5637C75.77 22.5439 75.8238 22.5272 75.8784 22.5138L84.5218 20.2756L89.6332 18.9511L96.1914 17.2523C96.3321 17.2147 96.4771 17.196 96.6227 17.1966C96.7164 17.1966 96.81 17.2043 96.9025 17.2196L129.826 22.6347C130.091 22.6783 130.342 22.783 130.56 22.9406C130.777 23.0982 130.955 23.3043 131.08 23.5427C131.204 23.7844 131.27 24.052 131.271 24.3239L131.495 52.0424C131.5 52.4124 131.385 52.7739 131.167 53.0734C130.95 53.3728 130.643 53.5942 130.29 53.7047Z" fill="#3F3D56"/>
<path d="M131.08 23.5428C131.058 23.5575 131.033 23.5685 131.007 23.5754L121.323 26.1975L118.309 27.0133L109.734 29.334C109.71 29.3401 109.685 29.3433 109.659 29.3436C109.642 29.3433 109.625 29.342 109.608 29.3398L75.0339 23.0264L74.9189 23.0053C74.844 22.9912 74.7776 22.948 74.7344 22.8851C74.6912 22.8222 74.6746 22.7447 74.6883 22.6696C74.702 22.5944 74.7448 22.5278 74.8074 22.4842C74.87 22.4407 74.9474 22.4237 75.0224 22.4371L75.7181 22.5638L109.648 28.7601L117.038 26.7599L121.172 25.6408L130.707 23.059L130.858 23.0187C130.923 23.0014 130.993 23.0077 131.054 23.0365C131.115 23.0652 131.165 23.1147 131.193 23.1761C131.201 23.1908 131.207 23.2062 131.211 23.2222C131.226 23.2825 131.222 23.3464 131.199 23.4042C131.175 23.462 131.134 23.5106 131.08 23.5428Z" fill="#3F3D56"/>
<path d="M109.946 60.7287C109.87 60.7287 109.798 60.6987 109.744 60.6453C109.69 60.5919 109.659 60.5193 109.659 60.4434L109.371 29.0586C109.37 28.9823 109.4 28.9088 109.453 28.8543C109.507 28.7998 109.58 28.7688 109.656 28.7681H109.659C109.734 28.7681 109.807 28.798 109.861 28.8515C109.915 28.9049 109.945 28.9775 109.946 29.0534L110.234 60.4381C110.234 60.5145 110.205 60.588 110.151 60.6425C110.098 60.697 110.025 60.728 109.949 60.7287H109.946Z" fill="#3F3D56"/>
<path d="M121.32 56.9103L118.306 57.7261L117.035 26.7598L84.6134 20.2986C84.5816 20.2929 84.5503 20.2852 84.5195 20.2755C84.2704 20.2045 84.0528 20.0508 83.9023 19.8398L88.3295 18.6919L89.6308 18.951L120.395 25.0802C120.556 25.1122 120.709 25.1788 120.843 25.2756C120.977 25.3723 121.088 25.4969 121.169 25.6407C121.265 25.8077 121.318 56.7107 121.32 56.9103Z" fill="#6A2E0D"/>
<path d="M198.616 156.909H0.381877C0.280494 156.908 0.183361 156.868 0.111776 156.796C0.0401914 156.724 0 156.627 0 156.525C0 156.424 0.0401914 156.326 0.111776 156.254C0.183361 156.182 0.280494 156.142 0.381877 156.142H198.616C198.717 156.142 198.815 156.182 198.887 156.254C198.959 156.326 198.999 156.423 198.999 156.525C198.999 156.627 198.959 156.724 198.887 156.796C198.815 156.868 198.717 156.909 198.616 156.909Z" fill="#CACACA"/>
<path d="M87.6801 43.3316C87.6443 43.3316 87.6085 43.3275 87.5736 43.3196L77.6023 41.0645C77.4776 41.0361 77.3692 40.9594 77.301 40.8511C77.2328 40.7427 77.2103 40.6117 77.2384 40.4868C77.2665 40.3619 77.343 40.2533 77.4511 40.1848C77.5591 40.1163 77.6899 40.0936 77.8146 40.1216L87.7859 42.3767C87.9017 42.4029 88.0038 42.4709 88.0726 42.5678C88.1415 42.6646 88.1723 42.7834 88.1592 42.9016C88.1461 43.0197 88.09 43.1289 88.0016 43.2082C87.9132 43.2875 87.7988 43.3315 87.6801 43.3316Z" fill="white"/>
<path d="M49.305 134.098C49.2699 134.105 49.2342 134.108 49.1983 134.108L38.9774 133.935C38.8497 133.933 38.728 133.88 38.6393 133.788C38.5505 133.696 38.5019 133.572 38.504 133.444C38.5061 133.316 38.5588 133.194 38.6506 133.105C38.7424 133.016 38.8657 132.967 38.9935 132.969L49.2144 133.141C49.333 133.143 49.4468 133.189 49.5339 133.27C49.621 133.35 49.6754 133.46 49.6866 133.579C49.6978 133.697 49.6651 133.815 49.5947 133.911C49.5243 134.007 49.4212 134.073 49.305 134.098Z" fill="#8BA3CC"/>
<path d="M52.8441 139.575C52.809 139.582 52.7732 139.585 52.7374 139.585L42.5165 139.412C42.3887 139.41 42.2671 139.357 42.1783 139.265C42.0896 139.173 42.0409 139.049 42.043 138.921C42.0452 138.793 42.0979 138.671 42.1897 138.582C42.2814 138.493 42.4047 138.444 42.5325 138.446L52.7534 138.618C52.8721 138.62 52.9858 138.666 53.073 138.747C53.1601 138.827 53.2144 138.938 53.2256 139.056C53.2369 139.174 53.2042 139.293 53.1338 139.388C53.0634 139.484 52.9602 139.55 52.8441 139.575Z" fill="#8BA3CC"/>
</g>
<defs>
<clipPath id="clip0_1265_3313">
<rect width="199" height="157" fill="white"/>
</clipPath>
</defs>
</svg>
